<?xml version="1.0" encoding="utf-8"?>
<!-- Generator: Adobe Illustrator 23.0.3, SVG Export Plug-In . SVG Version: 6.00 Build 0)  -->
<svg version="1.1" id="Calque_1" xmlns="http://www.w3.org/2000/svg" xmlns:xlink="http://www.w3.org/1999/xlink" x="0px" y="0px"
	 viewBox="0 0 183.8 154.5" style="enable-background:new 0 0 183.8 154.5;" xml:space="preserve">
<style type="text/css">
	.st0{fill:#FFFFFF;}
	.st1{fill:#D83A31;}
	.st2{fill:#00A259;}
	.st3{fill:none;stroke:#00A259;stroke-miterlimit:10;}
	.st4{fill:none;stroke:#D83A31;stroke-miterlimit:10;}
</style>
<g>
	<g id="Groupe_23" transform="translate(0 106.388)">
		<path id="Tracé_3" class="st0" d="M11.2,16.6H4.5l-1.8,5.4l2,0.2v0.7H0v-0.7l1.8-0.2L9,0.7h0.7l7.4,21.4l2,0.2v0.7H11v-0.7l2-0.2
			L11.2,16.6z M4.7,15.7l6.2-0.1l-3-9.3H7.8L4.7,15.7z"/>
		<path id="Tracé_4" class="st0" d="M30.7,8.3V7.7h4.2v0.6l-1.6,0.2L28.2,23h-0.7L21.5,8.5L20,8.3V7.7h7.2v0.6l-1.6,0.2l3.6,9.5
			h0.1l3.3-9.5L30.7,8.3z"/>
		<path id="Tracé_5" class="st0" d="M46.9,20.5c-0.7,1.8-2.4,2.9-4.3,2.8c-2,0.1-3.7-1.4-3.8-3.3c0-0.1,0-0.3,0-0.4
			c0-2.4,2-4.9,6.8-4.9c0.4,0,0.9,0,1.4,0.1v-2.1c0-2.9-0.2-4.7-2.7-4.7c-1.3-0.1-2.6,0.6-3.2,1.7v0.1c0.2,0,0.3,0,0.5,0
			c0.9,0,1.7,0.7,1.7,1.6c0,0.1,0,0.2,0,0.3c0,1-0.8,1.9-1.8,1.9c0,0-0.1,0-0.1,0c-1.1,0-1.9-0.9-1.9-1.9c0,0,0-0.1,0-0.1
			c0-2.5,2.7-4.2,5.4-4.2c5.2,0,5.9,2.6,5.9,6.7v8.2l1.6,0.2v0.6h-4.8L46.9,20.5L46.9,20.5z M44.1,22c1.3,0,2.7-1.9,2.7-4.4v-2.1
			c-0.3,0-0.7-0.1-1-0.1c-3.3,0-3.5,2.9-3.5,3.9C42.4,20.8,42.9,22,44.1,22L44.1,22z"/>
		<path id="Tracé_6" class="st0" d="M62.3,9.9L62.3,9.9c1.1-1.6,2.8-2.6,4.7-2.6c1.5,0,4.2,0.6,4.2,5v9.9l1.5,0.2v0.6H66v-0.6
			l1.5-0.2V11.8c0-3.1-1.5-3.2-2.1-3.2c-1.8,0-3.1,1.8-3.1,4.5v9l1.6,0.2v0.6h-6.8v-0.6l1.6-0.2V8.9l-1.8,0l0-0.6L60,7.9l2.1-0.6
			l0.3,0.4L62.3,9.9z"/>
		<path id="Tracé_7" class="st0" d="M80.6,4.2l2.1-0.6L83,4.1v3.6h3.3v0.7L83,8.5v10.7c0,2.7,1.5,2.7,1.8,2.7
			c1.3,0,2.2-1.3,2.8-2.3l0.7,0.4c-0.6,1-1.9,3.4-4.7,3.4c-2.1,0-4.3-0.7-4.3-5.1V8.5l-2.6-0.1V7.7h2.6V4.3L80.6,4.2z"/>
		<path id="Tracé_8" class="st0" d="M97.6,22.1l1.6,0.2v0.6h-6.8v-0.6l1.6-0.2V8.9H92V8.3l3.2-0.3l2.1-0.6l0.3,0.4L97.6,22.1z
			 M95.7,0c1.1,0,2,0.9,2,2c0,1.1-0.9,2-2,2c-1.1,0-2-0.9-2-2c0,0,0,0,0,0C93.7,0.9,94.6,0,95.7,0L95.7,0L95.7,0z"/>
		<path id="Tracé_9" class="st0" d="M125.1,17.5L125.1,17.5l5.3-15.4l-2-0.2V1.3h4.8V2l-1.8,0.2l-7.2,21.1h-0.7L115,2.1L112.7,2
			V1.3h8.4V2L119,2.1L125.1,17.5z"/>
		<path id="Tracé_10" class="st0" d="M142.5,22.1l1.6,0.2v0.6h-6.8v-0.6l1.6-0.2V8.9h-1.9V8.3l3.2-0.3l2.1-0.6l0.3,0.4L142.5,22.1z
			 M140.6,0c1.1,0,2,0.9,2,2c0,1.1-0.9,2-2,2c-1.1,0-2-0.9-2-2c0,0,0,0,0,0C138.6,0.9,139.5,0,140.6,0z"/>
		<path id="Tracé_11" class="st0" d="M154.4,9.9L154.4,9.9c1.1-1.6,2.8-2.6,4.7-2.6c1.5,0,4.2,0.6,4.2,5v9.9l1.5,0.2v0.6h-6.8v-0.6
			l1.5-0.2V11.8c0-3.1-1.5-3.2-2.1-3.2c-1.8,0-3.1,1.8-3.1,4.5v9l1.6,0.2v0.6h-6.8v-0.6l1.6-0.2V8.9l-1.8,0l0-0.6l3.2-0.3l2.1-0.6
			l0.3,0.4L154.4,9.9z"/>
		<path id="Tracé_12" class="st0" d="M183.8,15.3c0,4.5-2.8,8.1-6.9,8.1c-4.9,0-7-3.7-7-8c0-4.6,2.9-8.2,7-8.2
			C181.6,7.2,183.8,11.3,183.8,15.3z M179.9,15.4c0-4.7-0.7-7.5-3-7.5c-2.2,0-3,3.1-3,7.3c0,4.3,0.8,7.5,3,7.5
			C179.2,22.7,179.9,19.6,179.9,15.4L179.9,15.4z"/>
	</g>
	<g id="Groupe_24" transform="translate(32.915)">
		<path id="Tracé_13" class="st1" d="M42.7,60.7H16.9l-6.7,20.7L18,82v2.6H0V82l7-0.6L34.2,0h2.6L65,81.4l7.6,0.6v2.6H41.8V82
			l7.8-0.6L42.7,60.7z M18,57.3l23.5-0.5L29.9,21.4h-0.2L18,57.3z"/>
		<path id="Tracé_14" class="st2" d="M92.4,61.6h0.2l20-58.4l-7.8-0.6V0h18.4v2.6l-7,0.6L89,83.3h-2.6L54.1,3.2l-8.7-0.6V0h32v2.6
			l-7.8,0.6L92.4,61.6z"/>
	</g>
	<g id="Groupe_25" transform="translate(44.612 140.554)">
		<path id="Tracé_15" class="st0" d="M6.4,0v11.2H6.2c-0.1,0-0.2,0-0.2-0.1c0,0,0,0,0,0l0-1.4c-0.3,0.5-0.7,0.9-1.2,1.2
			c-0.5,0.3-1,0.4-1.6,0.4c-0.9,0.1-1.7-0.3-2.2-1C0.3,9.5,0.1,8.4,0.1,7.4c0-0.5,0.1-1.1,0.2-1.6C0.5,5.4,0.7,5,1,4.6
			c0.3-0.4,0.6-0.6,1-0.8C2.5,3.5,3,3.4,3.5,3.4c0.5,0,1,0.1,1.4,0.3c0.4,0.2,0.8,0.5,1,0.9V0L6.4,0z M6,5.1c-0.3-0.4-0.6-0.8-1.1-1
			C4.5,3.9,4,3.8,3.6,3.8C3.1,3.7,2.7,3.8,2.2,4C1.9,4.2,1.6,4.5,1.3,4.8C1.1,5.1,0.9,5.5,0.8,6c-0.1,0.5-0.2,1-0.2,1.5
			c-0.1,1,0.2,1.9,0.7,2.7c0.5,0.6,1.2,0.9,2,0.9c0.5,0,1-0.2,1.5-0.4C5.2,10.2,5.6,9.8,6,9.3L6,5.1z"/>
		<path id="Tracé_16" class="st0" d="M16.3,10.3c-0.1,0.1-0.3,0.3-0.4,0.4c-0.2,0.1-0.4,0.2-0.6,0.3c-0.3,0.1-0.5,0.2-0.8,0.2
			c-0.3,0.1-0.6,0.1-0.9,0.1c-0.5,0-1-0.1-1.4-0.3c-0.4-0.2-0.8-0.5-1.1-0.8c-0.3-0.4-0.5-0.8-0.7-1.3c-0.2-0.6-0.2-1.1-0.2-1.7
			c0-0.5,0.1-1,0.2-1.5c0.1-0.4,0.4-0.8,0.7-1.2c0.3-0.3,0.7-0.6,1.1-0.8c0.5-0.2,0.9-0.3,1.4-0.3c0.4,0,0.8,0.1,1.2,0.2
			c0.4,0.1,0.7,0.4,0.9,0.6c0.3,0.3,0.5,0.7,0.6,1c0.2,0.5,0.2,0.9,0.2,1.4c0,0.1,0,0.2-0.1,0.2h-5.8c0,0.1,0,0.1,0,0.2v0.2
			c0,0.5,0.1,1.1,0.2,1.6c0.1,0.4,0.3,0.8,0.6,1.2c0.3,0.3,0.6,0.6,1,0.7c0.4,0.2,0.8,0.3,1.3,0.2c0.4,0,0.7,0,1.1-0.1
			c0.3-0.1,0.5-0.2,0.8-0.3c0.2-0.1,0.3-0.2,0.5-0.3c0.1-0.1,0.1-0.1,0.2-0.1c0,0,0.1,0,0.1,0L16.3,10.3z M16.1,6.7
			c0-0.4-0.1-0.8-0.2-1.2c-0.1-0.3-0.3-0.6-0.5-0.9c-0.2-0.2-0.5-0.4-0.8-0.6c-0.3-0.1-0.7-0.2-1-0.2c-0.4,0-0.8,0.1-1.2,0.2
			c-0.3,0.1-0.6,0.3-0.9,0.6c-0.3,0.3-0.5,0.6-0.6,0.9c-0.2,0.4-0.3,0.8-0.3,1.2L16.1,6.7z"/>
		<path id="Tracé_17" class="st0" d="M20.6,5.1c0.3-0.5,0.7-0.9,1.2-1.2c0.5-0.3,1-0.4,1.6-0.4c0.9,0,1.7,0.3,2.2,1
			c0.6,0.9,0.9,1.9,0.8,2.9c0,0.5-0.1,1.1-0.2,1.6c-0.1,0.5-0.3,0.9-0.6,1.3c-0.3,0.4-0.6,0.6-1,0.8c-0.5,0.2-0.9,0.3-1.4,0.3
			c-1,0-1.9-0.4-2.5-1.3V14h-0.4V3.6h0.2c0.1,0,0.1,0,0.2,0.1c0,0,0,0,0,0L20.6,5.1z M20.6,9.6c0.3,0.4,0.6,0.8,1.1,1.1
			c0.4,0.2,0.9,0.3,1.3,0.3c0.5,0,0.9-0.1,1.3-0.3c0.4-0.2,0.7-0.4,0.9-0.8c0.3-0.3,0.4-0.7,0.6-1.2C26,8.3,26,7.8,26,7.3
			c0.1-1-0.2-1.9-0.7-2.7c-0.5-0.6-1.2-0.9-2-0.9c-0.5,0-1,0.2-1.5,0.4c-0.5,0.3-0.9,0.7-1.2,1.2V9.6z"/>
		<path id="Tracé_18" class="st0" d="M36,3.6v7.6h-0.2c-0.1,0-0.1-0.1-0.2-0.2l0-1.3c-0.3,0.5-0.8,0.9-1.3,1.2
			c-0.5,0.3-1.1,0.4-1.6,0.4c-0.4,0-0.8-0.1-1.1-0.2c-0.3-0.1-0.6-0.3-0.8-0.6c-0.2-0.3-0.4-0.6-0.5-0.9c-0.1-0.4-0.2-0.8-0.2-1.2
			V3.6h0.4v4.9c0,0.4,0,0.7,0.1,1.1c0.1,0.3,0.2,0.6,0.4,0.8c0.2,0.2,0.4,0.4,0.7,0.5c0.3,0.1,0.6,0.2,1,0.2c0.5,0,1.1-0.1,1.5-0.4
			c0.5-0.3,0.9-0.7,1.3-1.2V3.6L36,3.6z"/>
		<path id="Tracé_19" class="st0" d="M41.1,0.8c0,0.1,0,0.1,0,0.2c0,0.1-0.1,0.1-0.1,0.2c0,0-0.1,0.1-0.2,0.1c-0.1,0-0.1,0-0.2,0
			c-0.1,0-0.3-0.1-0.4-0.2C40.1,1.1,40,0.9,40,0.8c0-0.3,0.2-0.5,0.5-0.5c0.1,0,0.1,0,0.2,0c0.1,0,0.1,0.1,0.2,0.1
			c0,0,0.1,0.1,0.1,0.2C41.1,0.7,41.1,0.7,41.1,0.8z M40.8,3.6v7.6h-0.4V3.6L40.8,3.6z"/>
		<path id="Tracé_20" class="st0" d="M49.2,4.4c0,0-0.1,0.1-0.1,0.1c-0.1,0-0.1,0-0.2-0.1c-0.1-0.1-0.2-0.2-0.4-0.2
			C48.4,4,48.2,3.9,48,3.9c-0.3-0.1-0.6-0.1-0.8-0.1c-0.3,0-0.6,0-0.8,0.1c-0.2,0.1-0.5,0.2-0.6,0.4c-0.2,0.1-0.3,0.3-0.4,0.5
			c-0.1,0.2-0.1,0.4-0.1,0.6c0,0.2,0.1,0.5,0.2,0.7c0.1,0.2,0.3,0.3,0.5,0.4c0.2,0.1,0.5,0.2,0.7,0.3C46.7,6.9,47,7,47.3,7.1
			s0.5,0.2,0.8,0.3c0.2,0.1,0.5,0.2,0.7,0.4C49,7.9,49.2,8,49.3,8.3c0.1,0.2,0.2,0.5,0.2,0.8c0,0.3-0.1,0.6-0.2,0.9
			c-0.1,0.3-0.3,0.5-0.5,0.7c-0.2,0.2-0.5,0.4-0.8,0.5c-0.4,0.1-0.7,0.2-1.1,0.2c-0.2,0-0.5,0-0.7-0.1c-0.2,0-0.4-0.1-0.6-0.2
			c-0.2-0.1-0.4-0.2-0.5-0.3c-0.2-0.1-0.3-0.2-0.5-0.4l0.1-0.1c0,0,0,0,0.1-0.1c0,0,0.1,0,0.1,0c0.1,0,0.2,0.1,0.2,0.1
			c0.1,0.1,0.3,0.2,0.4,0.3c0.2,0.1,0.4,0.2,0.6,0.3c0.3,0.1,0.6,0.1,0.9,0.1c0.3,0,0.6,0,0.9-0.2c0.3-0.1,0.5-0.2,0.7-0.4
			c0.2-0.2,0.3-0.4,0.4-0.6c0.1-0.2,0.1-0.5,0.1-0.7c0-0.2-0.1-0.5-0.2-0.7c-0.1-0.2-0.3-0.4-0.5-0.5c-0.2-0.1-0.5-0.2-0.7-0.3
			c-0.3-0.1-0.5-0.2-0.8-0.3s-0.5-0.2-0.8-0.3c-0.2-0.1-0.5-0.2-0.7-0.4c-0.2-0.1-0.4-0.3-0.5-0.5c-0.1-0.2-0.2-0.5-0.2-0.8
			c0-0.3,0.1-0.5,0.2-0.7c0.1-0.2,0.3-0.5,0.5-0.6c0.2-0.2,0.5-0.3,0.8-0.4c0.3-0.1,0.7-0.2,1-0.2c0.4,0,0.8,0.1,1.2,0.2
			c0.4,0.1,0.7,0.3,1,0.6L49.2,4.4z"/>
		<path id="Tracé_21" class="st0" d="M65.4,10.9v0.3h-5.5v-0.3h2.6V1.3c0-0.1,0-0.2,0-0.2s0-0.2,0-0.2l-2.7,2.4c0,0-0.1,0.1-0.1,0
			c0,0-0.1,0-0.1-0.1L59.5,3l3.1-2.8h0.3v10.6L65.4,10.9z"/>
		<path id="Tracé_22" class="st0" d="M73.7,5.5c0.3,0.1,0.7,0.2,1,0.3C75,6,75.3,6.2,75.5,6.4c0.2,0.2,0.4,0.5,0.5,0.8
			c0.1,0.4,0.2,0.8,0.2,1.1c0,0.4-0.1,0.8-0.3,1.2c-0.2,0.4-0.4,0.7-0.7,0.9c-0.3,0.3-0.7,0.5-1.1,0.6c-0.9,0.3-1.9,0.3-2.8,0
			c-0.4-0.1-0.8-0.3-1.1-0.6c-0.3-0.3-0.6-0.6-0.7-0.9c-0.2-0.4-0.3-0.8-0.3-1.2c0-0.4,0.1-0.8,0.2-1.1c0.1-0.3,0.3-0.6,0.5-0.8
			c0.2-0.2,0.5-0.4,0.8-0.6c0.3-0.1,0.7-0.3,1-0.3c-0.3-0.1-0.6-0.2-0.9-0.4c-0.3-0.2-0.5-0.3-0.7-0.6c-0.2-0.2-0.3-0.5-0.4-0.8
			c-0.1-0.3-0.1-0.6-0.1-0.9c0-0.4,0.1-0.7,0.2-1.1c0.1-0.3,0.3-0.6,0.6-0.9c0.3-0.3,0.6-0.5,1-0.6c0.8-0.3,1.7-0.3,2.6,0
			c0.4,0.1,0.7,0.3,1,0.6c0.3,0.2,0.5,0.5,0.6,0.9c0.1,0.3,0.2,0.7,0.2,1.1c0,0.3,0,0.6-0.1,0.9c-0.1,0.3-0.2,0.5-0.4,0.8
			c-0.2,0.2-0.4,0.4-0.7,0.6C74.3,5.3,74,5.4,73.7,5.5z M72.8,11c0.4,0,0.8-0.1,1.2-0.2c0.4-0.1,0.7-0.3,1-0.5
			c0.3-0.2,0.5-0.5,0.6-0.8c0.2-0.3,0.2-0.7,0.2-1.1c0-0.3,0-0.6-0.1-0.9c-0.1-0.3-0.2-0.5-0.4-0.7c-0.2-0.2-0.3-0.4-0.5-0.5
			c-0.2-0.1-0.4-0.2-0.6-0.3c-0.2-0.1-0.4-0.1-0.7-0.2c-0.4-0.1-0.9-0.1-1.3,0c-0.2,0-0.5,0.1-0.7,0.2C71.2,6,71,6.1,70.8,6.2
			c-0.2,0.1-0.4,0.3-0.5,0.5C70.1,7,70,7.2,69.9,7.4c-0.1,0.3-0.1,0.6-0.1,0.9c0,0.4,0.1,0.7,0.2,1.1c0.1,0.3,0.4,0.6,0.6,0.8
			c0.3,0.2,0.6,0.4,1,0.5C72,11,72.4,11,72.8,11L72.8,11z M70.1,2.9c0,0.3,0.1,0.6,0.2,0.9c0.1,0.3,0.3,0.6,0.5,0.8
			C71,4.9,71.3,5,71.6,5.2c0.8,0.3,1.6,0.3,2.4,0c0.3-0.1,0.6-0.3,0.8-0.5c0.2-0.2,0.4-0.5,0.5-0.8c0.1-0.3,0.2-0.6,0.2-0.9
			c0-0.3-0.1-0.7-0.2-1c-0.1-0.3-0.3-0.6-0.5-0.8c-0.2-0.2-0.5-0.4-0.8-0.5c-0.7-0.2-1.5-0.2-2.3,0c-0.3,0.1-0.6,0.3-0.8,0.5
			c-0.2,0.2-0.4,0.5-0.5,0.8C70.2,2.3,70.1,2.6,70.1,2.9L70.1,2.9z"/>
		<path id="Tracé_23" class="st0" d="M87.2,5.8c0,0.8-0.1,1.7-0.3,2.5c-0.2,0.6-0.5,1.2-0.8,1.7c-0.3,0.4-0.7,0.8-1.2,1
			c-1,0.4-2.1,0.4-3,0c-0.5-0.2-0.9-0.6-1.2-1c-0.4-0.5-0.7-1.1-0.8-1.7c-0.4-1.6-0.4-3.3,0-5c0.2-0.6,0.5-1.2,0.8-1.7
			c0.3-0.4,0.7-0.8,1.2-1c1-0.4,2.1-0.4,3,0c0.5,0.2,0.9,0.6,1.2,1c0.4,0.5,0.7,1.1,0.8,1.7C87.1,4.1,87.2,4.9,87.2,5.8z M86.8,5.8
			c0-0.8-0.1-1.6-0.3-2.4c-0.1-0.6-0.4-1.1-0.7-1.6c-1-1.3-2.8-1.7-4.2-0.7c-0.3,0.2-0.5,0.4-0.7,0.7c-0.3,0.5-0.6,1-0.8,1.6
			c-0.4,1.6-0.4,3.2,0,4.7c0.1,0.6,0.4,1.1,0.8,1.6c0.3,0.4,0.7,0.7,1.1,0.9c1.3,0.6,2.9,0.3,3.8-0.9c0.3-0.5,0.6-1,0.7-1.6
			C86.7,7.4,86.8,6.6,86.8,5.8z"/>
		<path id="Tracé_24" class="st0" d="M95.4,6.6c0.2-0.3,0.4-0.6,0.5-0.8c0.2-0.2,0.3-0.5,0.4-0.7c-0.1,0.2-0.3,0.4-0.5,0.6
			c-0.2,0.2-0.4,0.3-0.6,0.4c-0.2,0.1-0.5,0.2-0.7,0.3c-0.3,0.1-0.5,0.1-0.8,0.1c-0.4,0-0.9-0.1-1.3-0.2C91.6,6,91,5.4,90.7,4.6
			c-0.2-0.4-0.2-0.8-0.2-1.3c0-0.4,0.1-0.9,0.3-1.3c0.2-0.4,0.4-0.7,0.7-1c0.3-0.3,0.7-0.5,1.1-0.7c0.4-0.2,0.9-0.2,1.4-0.2
			c0.4,0,0.9,0.1,1.3,0.2c0.4,0.2,0.7,0.4,1,0.7c0.3,0.3,0.5,0.7,0.7,1.1c0.2,0.4,0.2,0.9,0.2,1.4c0,0.3,0,0.5-0.1,0.8
			c-0.1,0.3-0.2,0.5-0.3,0.7c-0.1,0.3-0.3,0.5-0.4,0.8c-0.2,0.3-0.4,0.6-0.6,0.9l-3,4.4c0,0.1-0.1,0.1-0.2,0.1h-0.4L95.4,6.6z
			 M93.7,6.2c0.4,0,0.9-0.1,1.3-0.2c0.4-0.2,0.7-0.4,0.9-0.6c0.2-0.3,0.4-0.6,0.6-0.9c0.1-0.3,0.2-0.6,0.2-1c0-0.4-0.1-0.8-0.2-1.2
			C96.2,1.6,95.7,1,95,0.7c-0.4-0.1-0.7-0.2-1.1-0.2c-0.4,0-0.8,0.1-1.2,0.2c-0.4,0.1-0.7,0.3-0.9,0.6c-0.3,0.3-0.5,0.6-0.6,0.9
			C91,2.6,90.9,3,90.9,3.4c0,0.4,0.1,0.8,0.2,1.2c0.1,0.3,0.3,0.6,0.6,0.9c0.2,0.2,0.5,0.4,0.9,0.6C92.9,6.1,93.3,6.2,93.7,6.2z"/>
	</g>
</g>
<line class="st3" x1="131.6" y1="83.3" x2="160.3" y2="0"/>
<line class="st4" x1="28.3" y1="84.6" x2="57.4" y2="0"/>
</svg>
